<?xml version="1.0" encoding="UTF-8"?>
<svg width="54" height="56" fill="none" version="1.1" viewBox="0 0 54 56" xmlns="http://www.w3.org/2000/svg">
 <rect x="1" y="1" width="52" height="54" rx="26" stroke="#fff" stroke-width="2"/>
 <path d="m27.34 34.937c0.3125-0.3124 0.2812-0.7812 0-1.0937l-3.7813-3.5625h8.9688c0.4375 0 0.75-0.3438 0.75-0.75v-1c0-0.4375-0.3125-0.75-0.75-0.75h-8.9688l3.7813-3.5938c0.2812-0.3124 0.2812-0.7812 0-1.0937l-0.6875-0.6875c-0.3125-0.2812-0.7813-0.2812-1.0625 0l-6.0938 6.0938c-0.2812 0.2812-0.2812 0.75 0 1.0624l6.0938 6.0626c0.2812 0.2812 0.75 0.2812 1.0625 0z" fill="#fff"/>
</svg>
